<?xml version="1.0" standalone="no"?>
<!DOCTYPE svg PUBLIC "-//W3C//DTD SVG 20010904//EN"
 "http://www.w3.org/TR/2001/REC-SVG-20010904/DTD/svg10.dtd">
<svg version="1.0" xmlns="http://www.w3.org/2000/svg"
 width="300.000000pt" height="300.000000pt" viewBox="0 0 300.000000 300.000000"
 preserveAspectRatio="xMidYMid meet">
<metadata>
Created by potrace 1.11, written by Peter Selinger 2001-2013
</metadata>
<g transform="translate(0.000000,300.000000) scale(0.100000,-0.100000)"
fill="#000000" stroke="none">
<path d="M814 2248 c7 -13 133 -224 280 -470 l266 -447 0 -295 0 -296 140 0
140 0 0 294 0 294 279 468 279 469 -134 3 c-102 2 -141 -1 -162 -12 -22 -11
-61 -75 -169 -273 -131 -238 -194 -360 -220 -423 -10 -24 -12 -22 -41 42 -28
63 -231 437 -313 579 -22 38 -48 70 -64 77 -16 7 -78 12 -161 12 l-134 0 14
-22z"/>
</g>
</svg>
