<?xml version="1.0" standalone="no"?>
<!DOCTYPE svg PUBLIC "-//W3C//DTD SVG 20010904//EN"
 "http://www.w3.org/TR/2001/REC-SVG-20010904/DTD/svg10.dtd">
<svg version="1.0" xmlns="http://www.w3.org/2000/svg"
 width="260.000000pt" height="260.000000pt" viewBox="0 0 260.000000 260.000000"
 preserveAspectRatio="xMidYMid meet">
<metadata>
Created by potrace 1.11, written by Peter Selinger 2001-2013
</metadata>
<g transform="translate(0.000000,260.000000) scale(0.100000,-0.100000)"
fill="#000000" stroke="none">
<path d="M0 1295 l0 -1295 1300 0 1300 0 0 1295 0 1295 -1300 0 -1300 0 0
-1295z m1137 343 l168 -341 170 341 169 342 98 0 98 0 -20 -40 c-11 -22 -111
-212 -220 -421 l-200 -381 0 -269 0 -269 -100 0 -100 0 0 268 0 267 -136 260
c-74 143 -174 333 -220 423 l-85 162 105 0 106 0 167 -342z"/>
</g>
</svg>
