<?xml version="1.0" standalone="no"?>
<!DOCTYPE svg PUBLIC "-//W3C//DTD SVG 20010904//EN"
 "http://www.w3.org/TR/2001/REC-SVG-20010904/DTD/svg10.dtd">
<svg version="1.0" xmlns="http://www.w3.org/2000/svg"
 width="260.000000pt" height="260.000000pt" viewBox="0 0 260.000000 260.000000"
 preserveAspectRatio="xMidYMid meet">
<metadata>
Created by potrace 1.11, written by Peter Selinger 2001-2013
</metadata>
<g transform="translate(0.000000,260.000000) scale(0.100000,-0.100000)"
fill="#000000" stroke="none">
<path d="M0 1295 l0 -1295 1300 0 1300 0 0 1295 0 1295 -1300 0 -1300 0 0
-1295z m710 318 c69 -141 130 -263 137 -272 10 -13 34 29 145 256 l133 273 73
0 c39 0 72 -3 72 -6 0 -4 -79 -157 -175 -340 l-175 -334 0 -210 0 -210 -70 0
-70 0 0 209 0 209 -170 325 c-94 179 -173 333 -176 341 -5 14 5 16 72 16 l79
-1 125 -256z m1320 198 l0 -60 -270 -420 c-148 -231 -270 -422 -270 -425 0 -3
122 -6 270 -6 l270 0 -6 -42 c-3 -24 -7 -53 -10 -65 l-4 -23 -345 0 -345 0 0
59 0 59 275 426 c151 234 275 428 275 431 0 3 -110 5 -245 5 l-245 0 0 60 0
60 325 0 325 0 0 -59z"/>
</g>
</svg>
